<svg t="1677767906362" class="icon" viewBox="0 0 1024 1024" version="1.1" xmlns="http://www.w3.org/2000/svg" p-id="5904" width="200" height="200"><path d="M847 772.6H549.1V847h186.2c13.3 0 25.6 7.1 32.3 18.6 6.7 11.5 6.7 25.7 0 37.2-6.7 11.5-18.9 18.6-32.3 18.6H288.4c-13.3 0-25.6-7.1-32.3-18.6-6.7-11.5-6.7-25.7 0-37.2 6.7-11.5 18.9-18.6 32.3-18.6h186.2v-74.5H176.7C115 772.6 65 722.5 65 660.8V251.2c0-82.3 66.7-148.9 148.9-148.9h633c61.7 0 111.7 50 111.7 111.7v446.8c0.1 61.7-49.9 111.8-111.6 111.8zM355.2 303.1c-5.8-7.8-14.5-12.9-24.2-14.1-9.7-1.2-19.4 1.7-26.9 7.9l-113.9 94c-7.7 6.3-12.6 15.4-13.5 25.3-1 16.4-0.8 32.9 0.7 49.3 0.9 10.3 6.2 19.8 14.5 26.1l114 87.6c14.9 11.6 36.3 9.3 48.4-5.1-0.3 0.3-0.3 0.8-0.6 1.1l1.6-1.9c-0.3 0.3-0.7 0.5-1 0.8 13-16.7 10-40.8-6.7-53.8l-102.1-78.5 103.8-85.6c15.8-13.4 18.3-36.7 5.9-53.1z m236.9-31.4c-18.1-9.8-40.7-3.2-50.5 14.9L416.7 515.4c-6.8 11.7-6.6 26.1 0.3 37.7 6.9 11.6 19.6 18.5 33.1 18.1 13.5-0.4 25.7-8.1 31.9-20.2l124.9-228.8c4.7-8.7 5.8-18.9 3.1-28.4-2.8-9.4-9.2-17.3-17.9-22.1zM847 416.2c-0.9-9.9-5.8-19-13.5-25.3l-113.9-94c-7.5-6.2-17.2-9.1-26.8-7.9-9.7 1.2-18.4 6.3-24.2 14.1-12.5 16.5-9.9 39.8 5.9 53.1l103.8 85.6-102.1 78.5c-16.7 13-19.7 37.1-6.7 53.8-0.3-0.3-0.7-0.5-1-0.8l1.6 1.9c-0.3-0.3-0.3-0.8-0.6-1.1 12.1 14.4 33.5 16.7 48.4 5.1l114-87.6c8.3-6.3 13.6-15.7 14.5-26.1 1.4-16.3 1.6-32.8 0.6-49.3z m0 0" p-id="5905" fill="#1890ff"></path></svg>